<svg id="svg" xmlns="http://www.w3.org/2000/svg" xmlns:xlink="http://www.w3.org/1999/xlink" width="400" height="208.5747392815759" viewBox="0, 0, 400,208.5747392815759" version="1.1"><g id="svgg"><path id="path0" d="M111.215 10.790 C 110.699 10.823,109.338 10.952,108.190 11.078 C 107.042 11.204,105.634 11.347,105.060 11.398 C 104.486 11.448,103.500 11.587,102.869 11.707 C 102.238 11.827,101.252 11.975,100.678 12.035 C 100.104 12.096,99.588 12.207,99.531 12.282 C 99.389 12.466,97.943 12.962,97.724 12.901 C 97.322 12.790,91.345 14.161,91.184 14.401 C 91.127 14.487,90.159 14.807,89.033 15.113 C 87.907 15.419,86.733 15.773,86.424 15.900 C 86.116 16.027,85.724 16.158,85.554 16.192 C 85.384 16.225,85.212 16.352,85.172 16.473 C 85.131 16.594,84.937 16.693,84.740 16.693 C 84.543 16.693,84.293 16.781,84.184 16.889 C 84.075 16.997,83.751 17.132,83.464 17.190 C 82.723 17.338,80.062 18.341,79.926 18.523 C 79.792 18.703,79.275 18.943,77.346 19.724 C 76.563 20.040,75.812 20.404,75.676 20.531 C 75.541 20.658,74.562 21.180,73.500 21.691 C 72.439 22.203,71.570 22.696,71.570 22.787 C 71.570 22.878,71.452 22.953,71.307 22.953 C 71.162 22.953,70.562 23.276,69.974 23.672 C 69.387 24.068,68.868 24.354,68.821 24.307 C 68.774 24.260,68.411 24.499,68.014 24.839 C 67.617 25.178,67.209 25.456,67.106 25.456 C 67.003 25.456,65.988 26.114,64.850 26.917 C 63.712 27.720,62.694 28.378,62.589 28.378 C 62.485 28.378,62.257 28.595,62.083 28.860 C 61.909 29.125,61.390 29.554,60.930 29.812 C 60.470 30.071,60.094 30.376,60.094 30.490 C 60.094 30.604,60.004 30.642,59.894 30.574 C 59.785 30.506,59.542 30.685,59.354 30.971 C 59.167 31.257,58.849 31.543,58.648 31.607 C 58.448 31.671,57.865 32.124,57.354 32.613 C 56.843 33.103,56.123 33.719,55.753 33.982 C 55.384 34.245,55.144 34.562,55.220 34.686 C 55.300 34.814,55.262 34.851,55.133 34.771 C 55.008 34.693,54.782 34.798,54.631 35.003 C 54.480 35.208,53.771 35.879,53.056 36.495 C 52.341 37.110,51.816 37.709,51.889 37.827 C 51.961 37.944,51.929 37.984,51.817 37.914 C 51.625 37.796,49.661 39.639,49.661 39.938 C 49.661 40.013,49.333 40.364,48.931 40.716 C 48.530 41.068,48.254 41.441,48.318 41.544 C 48.381 41.647,48.272 41.732,48.074 41.732 C 47.875 41.732,47.766 41.785,47.831 41.849 C 47.895 41.914,47.559 42.345,47.083 42.807 C 46.607 43.270,46.359 43.578,46.531 43.491 C 46.703 43.404,46.351 43.813,45.749 44.399 C 45.146 44.985,44.653 45.567,44.653 45.692 C 44.653 45.817,44.324 46.248,43.923 46.649 C 43.521 47.051,43.192 47.570,43.192 47.802 C 43.192 48.035,43.099 48.167,42.984 48.096 C 42.869 48.025,42.775 48.052,42.775 48.156 C 42.775 48.260,42.577 48.571,42.335 48.847 C 41.683 49.590,40.063 51.881,40.063 52.059 C 40.063 52.145,39.781 52.535,39.437 52.927 C 39.092 53.319,38.811 53.738,38.811 53.857 C 38.811 53.976,38.395 54.716,37.888 55.500 C 37.380 56.285,37.020 56.982,37.088 57.050 C 37.156 57.117,37.112 57.173,36.990 57.173 C 36.869 57.173,36.610 57.572,36.416 58.059 C 36.222 58.547,35.831 59.252,35.547 59.626 C 35.264 59.999,35.084 60.390,35.149 60.495 C 35.213 60.599,35.168 60.717,35.047 60.757 C 34.927 60.797,34.518 61.601,34.137 62.544 C 33.757 63.487,33.375 64.190,33.289 64.106 C 33.202 64.023,33.169 64.142,33.214 64.371 C 33.259 64.601,33.180 64.883,33.038 64.997 C 32.798 65.191,31.815 67.619,31.609 68.529 C 31.558 68.750,31.434 68.985,31.332 69.051 C 31.154 69.166,30.812 69.989,30.762 70.423 C 30.749 70.537,30.636 70.878,30.512 71.179 C 30.387 71.480,30.181 72.138,30.052 72.640 C 29.775 73.724,29.490 74.542,29.044 75.535 C 28.863 75.936,28.710 76.608,28.703 77.027 C 28.696 77.446,28.632 77.753,28.561 77.709 C 28.489 77.665,28.315 78.214,28.174 78.929 C 28.033 79.644,27.876 80.417,27.824 80.647 C 27.773 80.876,27.624 81.628,27.492 82.316 C 27.361 83.005,27.189 83.615,27.110 83.672 C 27.032 83.730,26.815 84.857,26.629 86.176 C 25.806 92.018,25.693 94.011,25.769 101.408 C 25.835 107.844,25.887 109.007,26.212 111.215 C 26.288 111.732,26.373 112.342,26.400 112.572 C 26.427 112.801,26.505 113.459,26.573 114.032 C 26.774 115.714,26.956 116.730,27.098 116.954 C 27.170 117.068,27.442 118.148,27.700 119.353 C 27.959 120.558,28.202 121.638,28.240 121.753 C 28.278 121.868,28.383 122.409,28.472 122.956 C 28.564 123.516,28.783 124.037,28.976 124.149 C 29.163 124.259,29.208 124.351,29.075 124.355 C 28.830 124.361,28.922 125.108,29.218 125.509 C 29.303 125.623,29.626 126.562,29.937 127.595 C 30.247 128.628,30.579 129.555,30.675 129.655 C 30.771 129.755,30.793 129.982,30.725 130.159 C 30.645 130.369,30.686 130.429,30.844 130.331 C 30.995 130.238,31.044 130.289,30.976 130.468 C 30.915 130.626,31.162 131.351,31.523 132.080 C 31.885 132.809,32.199 133.507,32.221 133.630 C 32.346 134.339,32.818 135.408,32.966 135.317 C 33.060 135.259,33.094 135.378,33.041 135.582 C 32.987 135.787,33.134 136.173,33.367 136.442 C 33.600 136.710,33.845 137.130,33.912 137.375 C 34.132 138.181,34.914 139.802,35.084 139.802 C 35.175 139.802,35.201 139.931,35.141 140.088 C 35.080 140.245,35.168 140.511,35.336 140.679 C 35.504 140.847,36.035 141.767,36.515 142.723 C 36.996 143.679,37.525 144.597,37.691 144.763 C 37.857 144.929,38.231 145.535,38.523 146.111 C 38.814 146.687,39.257 147.368,39.506 147.626 C 39.755 147.884,39.989 148.223,40.027 148.380 C 40.065 148.537,40.160 148.714,40.238 148.772 C 40.316 148.831,40.565 149.231,40.791 149.662 C 41.017 150.093,41.556 150.844,41.988 151.331 C 42.421 151.818,42.775 152.320,42.775 152.446 C 42.775 152.572,43.080 152.994,43.453 153.385 C 43.826 153.775,44.392 154.479,44.711 154.949 C 45.030 155.419,45.499 155.999,45.754 156.239 C 46.009 156.479,46.547 157.073,46.948 157.559 C 49.595 160.764,55.591 166.719,56.171 166.719 C 56.301 166.719,56.350 166.777,56.279 166.847 C 56.208 166.918,56.686 167.405,57.340 167.930 C 57.994 168.454,58.885 169.198,59.320 169.582 C 59.755 169.966,60.215 170.216,60.343 170.137 C 60.484 170.049,60.517 170.088,60.427 170.234 C 60.345 170.366,60.369 170.475,60.481 170.475 C 60.593 170.475,61.088 170.850,61.580 171.309 C 62.072 171.768,62.564 172.144,62.673 172.144 C 62.782 172.144,63.174 172.375,63.543 172.657 C 63.913 172.939,64.282 173.103,64.363 173.022 C 64.444 172.941,64.479 172.984,64.441 173.117 C 64.381 173.327,66.771 175.065,67.120 175.065 C 67.190 175.065,67.351 175.197,67.478 175.357 C 67.606 175.518,68.361 176.002,69.158 176.433 C 69.954 176.865,70.929 177.437,71.325 177.706 C 71.722 177.975,72.173 178.195,72.330 178.195 C 72.486 178.195,72.613 178.295,72.613 178.416 C 72.613 178.538,72.705 178.580,72.818 178.511 C 73.005 178.395,73.975 178.972,74.657 179.604 C 74.812 179.747,75.033 179.864,75.149 179.864 C 75.265 179.864,76.330 180.334,77.517 180.908 C 78.704 181.481,79.815 181.951,79.987 181.951 C 80.159 181.951,80.330 182.029,80.369 182.125 C 80.445 182.317,83.215 183.412,83.625 183.412 C 83.766 183.412,83.881 183.496,83.881 183.600 C 83.881 183.840,85.054 184.256,85.231 184.079 C 85.304 184.005,85.432 184.054,85.514 184.187 C 85.596 184.320,85.918 184.476,86.229 184.532 C 86.541 184.588,86.892 184.695,87.011 184.768 C 87.130 184.841,87.439 184.940,87.698 184.987 C 87.957 185.034,88.740 185.304,89.437 185.587 C 90.644 186.078,94.723 187.168,96.505 187.477 C 96.964 187.557,97.433 187.696,97.548 187.786 C 97.850 188.023,101.607 188.677,101.938 188.550 C 102.091 188.491,102.246 188.519,102.282 188.612 C 102.367 188.833,107.131 189.429,110.068 189.586 C 111.330 189.654,112.452 189.794,112.561 189.899 C 112.670 190.003,113.022 190.089,113.344 190.089 L 113.928 190.089 113.928 185.108 L 113.928 180.127 112.415 179.993 C 108.054 179.606,106.272 179.399,105.895 179.238 C 105.522 179.078,104.380 178.873,102.869 178.695 C 101.917 178.583,101.107 178.441,100.075 178.205 C 99.513 178.076,98.809 177.932,98.510 177.883 C 97.407 177.705,95.983 177.286,95.983 177.140 C 95.983 177.057,95.631 176.926,95.201 176.848 C 94.770 176.770,93.627 176.467,92.660 176.175 C 91.693 175.882,90.801 175.622,90.678 175.596 C 89.884 175.426,89.306 175.207,89.306 175.076 C 89.306 174.992,88.907 174.804,88.419 174.658 C 87.932 174.511,87.345 174.309,87.115 174.208 C 86.886 174.107,86.277 173.880,85.762 173.702 C 85.248 173.525,84.606 173.236,84.337 173.059 C 84.068 172.883,83.717 172.788,83.557 172.850 C 83.397 172.911,83.193 172.837,83.104 172.685 C 82.952 172.426,81.722 171.703,81.479 171.731 C 81.418 171.738,80.574 171.311,79.603 170.781 C 78.627 170.250,77.728 169.887,77.593 169.971 C 77.458 170.054,77.401 170.036,77.466 169.931 C 77.531 169.826,77.217 169.562,76.768 169.344 C 76.319 169.126,75.952 168.882,75.952 168.803 C 75.952 168.724,75.529 168.485,75.013 168.272 C 74.497 168.059,74.074 167.805,74.074 167.707 C 74.074 167.609,73.980 167.587,73.865 167.658 C 73.751 167.729,73.657 167.694,73.657 167.580 C 73.657 167.466,73.479 167.317,73.263 167.248 C 73.046 167.179,72.612 166.885,72.299 166.595 C 71.986 166.305,71.595 166.119,71.430 166.182 C 71.266 166.245,71.176 166.224,71.232 166.134 C 71.287 166.045,70.916 165.709,70.408 165.387 C 69.899 165.066,69.484 164.717,69.484 164.613 C 69.484 164.509,69.384 164.424,69.262 164.424 C 69.046 164.424,67.448 163.317,66.711 162.656 C 66.506 162.472,66.246 162.379,66.132 162.449 C 66.019 162.519,65.952 162.462,65.983 162.321 C 66.015 162.180,65.712 161.841,65.310 161.568 C 64.249 160.845,62.506 159.256,59.399 156.182 C 57.891 154.690,56.329 153.203,55.927 152.879 C 55.525 152.554,55.195 152.134,55.193 151.945 C 55.192 151.756,54.890 151.411,54.523 151.179 C 54.155 150.946,53.764 150.505,53.652 150.198 C 53.541 149.891,53.066 149.268,52.598 148.814 C 52.130 148.360,51.748 147.931,51.748 147.861 C 51.748 147.660,49.221 144.296,49.012 144.218 C 48.908 144.179,48.877 144.063,48.941 143.958 C 49.006 143.854,48.836 143.556,48.564 143.298 C 48.098 142.854,47.358 141.665,46.518 140.010 C 46.314 139.609,45.949 139.069,45.705 138.811 C 45.462 138.552,45.315 138.341,45.378 138.341 C 45.505 138.341,44.261 135.797,44.052 135.629 C 43.895 135.502,42.929 133.530,42.866 133.205 C 42.841 133.077,42.496 132.326,42.100 131.536 C 41.703 130.746,41.061 129.160,40.673 128.013 C 40.284 126.865,39.866 125.821,39.743 125.692 C 39.620 125.563,39.341 124.741,39.123 123.866 C 38.905 122.991,38.646 122.274,38.548 122.274 C 38.449 122.274,38.417 122.197,38.476 122.102 C 38.599 121.901,37.961 119.091,37.756 118.936 C 37.538 118.771,36.985 115.969,36.520 112.676 C 36.285 111.012,36.040 109.322,35.976 108.920 C 35.911 108.519,35.871 107.736,35.885 107.181 C 35.900 106.627,35.808 106.048,35.682 105.897 C 35.378 105.530,35.322 94.856,35.622 94.477 C 35.739 94.330,35.909 93.318,36.000 92.227 C 36.091 91.137,36.202 89.917,36.247 89.515 C 36.291 89.113,36.365 88.371,36.412 87.865 C 36.458 87.359,36.555 86.795,36.626 86.613 C 36.697 86.430,36.798 85.952,36.850 85.550 C 36.959 84.714,36.974 84.635,37.336 82.942 C 37.483 82.254,37.675 81.596,37.761 81.481 C 37.899 81.298,38.038 80.837,38.295 79.708 C 38.619 78.286,39.251 76.091,39.437 75.743 C 39.562 75.509,39.607 75.225,39.537 75.112 C 39.467 74.998,39.546 74.853,39.713 74.790 C 39.880 74.726,40.129 74.233,40.268 73.696 C 40.407 73.158,40.574 72.577,40.639 72.405 C 40.704 72.233,40.768 72.045,40.782 71.987 C 40.796 71.930,40.938 71.648,41.096 71.362 C 41.255 71.075,41.380 70.793,41.375 70.736 C 41.369 70.678,41.447 70.414,41.548 70.148 C 41.649 69.882,41.732 69.525,41.732 69.353 C 41.732 69.182,41.816 69.093,41.918 69.157 C 42.092 69.264,42.469 68.320,42.392 67.971 C 42.373 67.885,42.445 67.814,42.552 67.814 C 42.711 67.814,42.964 67.324,43.092 66.771 C 43.182 66.379,43.927 65.102,44.066 65.102 C 44.159 65.102,44.236 65.019,44.236 64.919 C 44.236 64.818,44.394 64.372,44.588 63.927 C 44.781 63.483,44.922 63.049,44.901 62.963 C 44.879 62.877,44.949 62.806,45.056 62.806 C 45.242 62.806,45.492 62.268,45.474 61.906 C 45.470 61.812,45.706 61.547,45.999 61.317 C 46.291 61.087,46.531 60.802,46.531 60.684 C 46.531 60.393,48.033 57.941,48.327 57.751 C 48.457 57.668,48.690 57.292,48.846 56.917 C 49.117 56.261,49.402 55.840,50.078 55.096 C 50.250 54.907,50.742 54.236,51.171 53.604 C 51.599 52.973,52.275 52.091,52.671 51.645 C 53.068 51.199,53.337 50.744,53.268 50.633 C 53.199 50.521,53.252 50.498,53.386 50.581 C 53.526 50.668,53.687 50.571,53.768 50.352 C 53.902 49.990,54.550 49.274,56.707 47.103 C 57.250 46.557,57.688 46.040,57.680 45.955 C 57.661 45.750,58.714 44.757,58.951 44.757 C 59.053 44.757,59.423 44.364,59.772 43.883 C 60.121 43.403,60.513 43.004,60.643 42.997 C 60.773 42.990,61.257 42.561,61.719 42.045 C 62.181 41.528,62.615 41.106,62.683 41.106 C 62.938 41.106,63.601 40.300,63.467 40.151 C 63.391 40.066,63.450 40.066,63.598 40.151 C 63.890 40.320,64.533 39.906,64.376 39.652 C 64.323 39.567,64.509 39.393,64.790 39.266 C 65.228 39.066,66.557 38.062,68.158 36.722 C 68.405 36.515,68.944 36.186,69.356 35.991 C 69.768 35.795,70.065 35.570,70.016 35.490 C 69.967 35.410,70.273 35.164,70.696 34.944 C 71.119 34.724,72.123 34.106,72.926 33.571 C 73.730 33.037,74.873 32.355,75.468 32.057 C 76.062 31.759,76.607 31.420,76.679 31.304 C 76.751 31.187,77.275 30.892,77.842 30.648 C 78.409 30.404,78.873 30.122,78.873 30.021 C 78.873 29.921,78.944 29.857,79.030 29.880 C 79.340 29.962,80.244 29.559,80.944 29.026 C 81.336 28.727,81.673 28.529,81.691 28.586 C 81.709 28.644,82.186 28.488,82.750 28.240 C 83.315 27.992,84.082 27.675,84.455 27.536 C 84.828 27.397,85.133 27.201,85.133 27.100 C 85.133 27.000,85.221 26.917,85.328 26.917 C 85.435 26.917,85.788 26.808,86.111 26.674 C 86.434 26.540,86.745 26.416,86.802 26.398 C 86.860 26.381,87.309 26.251,87.800 26.110 C 88.291 25.970,88.643 25.774,88.582 25.675 C 88.521 25.576,88.674 25.548,88.921 25.613 C 89.227 25.693,89.324 25.654,89.224 25.492 C 89.130 25.340,89.187 25.295,89.379 25.369 C 89.546 25.433,90.091 25.304,90.590 25.081 C 91.654 24.608,93.766 23.977,96.035 23.456 C 96.925 23.252,97.653 23.021,97.653 22.944 C 97.653 22.866,98.360 22.682,99.224 22.534 C 100.089 22.386,100.846 22.184,100.908 22.084 C 100.970 21.984,101.095 21.949,101.187 22.006 C 101.280 22.063,102.470 21.929,103.833 21.707 C 105.197 21.486,107.042 21.240,107.935 21.161 C 108.827 21.081,109.608 20.935,109.669 20.837 C 109.730 20.738,110.220 20.656,110.758 20.655 C 111.297 20.654,112.230 20.594,112.833 20.522 L 113.928 20.390 113.928 15.533 L 113.928 10.676 113.041 10.704 C 112.553 10.719,111.732 10.758,111.215 10.790 M294.210 11.009 C 294.210 11.126,293.952 11.287,293.638 11.366 C 293.324 11.445,292.998 11.619,292.915 11.754 C 292.832 11.888,292.644 11.998,292.496 11.998 C 292.348 11.998,292.227 12.139,292.227 12.311 C 292.227 12.483,292.062 12.748,291.859 12.899 C 291.656 13.050,291.539 13.254,291.599 13.351 C 291.659 13.448,291.590 13.567,291.446 13.615 C 291.239 13.684,291.173 17.887,291.129 33.768 L 291.074 53.834 295.876 53.834 L 300.678 53.834 300.678 37.246 L 300.678 20.657 302.961 20.657 C 304.217 20.657,305.293 20.737,305.354 20.835 C 305.414 20.932,306.382 21.085,307.505 21.174 C 310.926 21.445,311.382 21.491,312.572 21.688 C 313.203 21.792,314.142 21.938,314.658 22.011 C 315.697 22.157,316.274 22.261,316.745 22.385 C 316.917 22.431,317.433 22.542,317.893 22.633 C 318.352 22.724,318.821 22.870,318.936 22.957 C 319.051 23.044,319.708 23.238,320.396 23.386 C 321.085 23.535,321.695 23.668,321.753 23.682 C 321.810 23.695,322.186 23.781,322.587 23.872 C 323.662 24.117,325.998 24.863,326.239 25.039 C 326.354 25.123,327.510 25.543,328.809 25.972 C 330.108 26.401,331.694 27.016,332.333 27.339 C 332.972 27.661,333.623 27.876,333.780 27.816 C 333.936 27.756,334.064 27.797,334.064 27.907 C 334.064 28.016,334.627 28.330,335.316 28.603 C 336.004 28.877,336.568 29.183,336.568 29.283 C 336.568 29.384,336.713 29.410,336.891 29.341 C 337.069 29.273,337.165 29.298,337.104 29.397 C 337.001 29.564,339.198 30.673,339.632 30.673 C 339.739 30.673,340.022 30.854,340.259 31.075 C 340.496 31.296,341.348 31.808,342.151 32.213 C 342.955 32.617,343.741 33.070,343.899 33.219 C 344.474 33.763,344.993 34.115,344.837 33.855 C 344.751 33.712,344.780 33.594,344.902 33.594 C 345.023 33.594,345.123 33.729,345.123 33.893 C 345.123 34.057,345.327 34.257,345.576 34.336 C 345.825 34.415,346.131 34.566,346.254 34.672 C 347.051 35.355,349.301 36.933,349.477 36.933 C 349.594 36.933,349.812 37.105,349.962 37.316 C 350.312 37.808,352.423 39.324,352.434 39.091 C 352.439 38.994,352.584 39.176,352.757 39.495 C 352.936 39.825,353.171 40.013,353.302 39.932 C 353.443 39.846,353.474 39.885,353.383 40.032 C 353.295 40.174,353.401 40.339,353.640 40.430 C 354.142 40.621,356.894 43.081,358.460 44.738 C 359.100 45.416,359.898 46.214,360.233 46.512 C 360.568 46.809,360.991 47.236,361.172 47.461 C 361.354 47.685,361.910 48.295,362.409 48.817 C 362.908 49.339,363.441 50.000,363.594 50.287 C 363.747 50.574,364.160 51.042,364.513 51.328 C 364.865 51.614,365.154 51.925,365.154 52.020 C 365.154 52.381,366.254 53.615,366.461 53.487 C 366.581 53.413,366.621 53.447,366.550 53.562 C 366.478 53.677,366.584 53.949,366.784 54.168 C 366.984 54.386,367.409 55.013,367.728 55.561 C 368.068 56.146,368.402 56.498,368.536 56.415 C 368.668 56.334,368.707 56.369,368.627 56.498 C 368.551 56.621,368.607 56.851,368.751 57.008 C 369.059 57.343,369.346 57.801,369.962 58.939 C 370.209 59.395,370.590 59.922,370.808 60.111 C 371.026 60.301,371.205 60.546,371.205 60.655 C 371.205 60.995,372.516 63.319,372.807 63.495 C 372.959 63.587,373.083 63.787,373.083 63.939 C 373.083 64.091,373.225 64.334,373.399 64.478 C 373.572 64.622,373.692 64.845,373.665 64.973 C 373.602 65.274,374.575 67.606,374.764 67.606 C 374.898 67.606,375.999 70.242,376.313 71.312 C 376.389 71.572,376.538 71.732,376.643 71.667 C 376.748 71.602,376.774 71.704,376.702 71.893 C 376.629 72.083,376.672 72.302,376.797 72.379 C 376.922 72.456,377.389 73.668,377.834 75.072 C 378.280 76.476,378.695 77.573,378.757 77.511 C 378.819 77.449,378.825 77.636,378.769 77.927 C 378.714 78.218,378.761 78.456,378.875 78.456 C 378.989 78.456,379.154 78.761,379.241 79.134 C 379.420 79.893,379.480 80.101,379.541 80.177 C 379.598 80.247,379.686 80.685,379.846 81.690 C 379.919 82.149,380.027 82.682,380.087 82.873 C 380.232 83.341,380.346 83.921,380.632 85.655 C 380.765 86.458,380.937 87.162,381.014 87.220 C 381.463 87.553,382.119 95.421,382.118 100.469 C 382.118 105.803,381.509 113.217,381.022 113.817 C 380.926 113.935,380.779 114.502,380.697 115.076 C 380.492 116.503,380.434 116.816,380.180 117.854 C 380.060 118.349,380.011 118.835,380.072 118.935 C 380.134 119.034,380.102 119.166,380.002 119.228 C 379.902 119.290,379.646 120.135,379.434 121.106 C 379.221 122.077,378.972 122.825,378.882 122.769 C 378.791 122.713,378.717 122.816,378.717 122.999 C 378.717 123.181,378.519 123.915,378.276 124.628 C 378.034 125.342,377.818 126.041,377.796 126.181 C 377.773 126.321,377.690 126.501,377.610 126.581 C 377.530 126.660,377.465 126.866,377.465 127.038 C 377.465 127.210,377.149 128.016,376.764 128.829 C 376.379 129.642,375.996 130.543,375.913 130.829 C 375.830 131.116,375.582 131.749,375.361 132.236 C 375.141 132.722,374.961 133.215,374.961 133.331 C 374.961 133.447,374.881 133.542,374.784 133.542 C 374.636 133.542,373.843 135.051,373.800 135.413 C 373.768 135.683,372.744 137.638,372.499 137.896 C 372.350 138.053,371.908 138.819,371.516 139.598 C 371.123 140.377,370.729 141.046,370.639 141.086 C 370.414 141.185,368.910 143.672,368.910 143.944 C 368.910 144.064,368.792 144.238,368.649 144.330 C 368.217 144.606,367.510 145.529,367.866 145.352 C 368.131 145.220,368.130 145.239,367.859 145.472 C 367.682 145.624,367.311 146.077,367.033 146.479 C 366.755 146.881,366.359 147.332,366.154 147.482 C 365.948 147.632,365.780 147.873,365.780 148.018 C 365.780 148.163,365.457 148.644,365.062 149.088 C 364.666 149.533,364.392 149.974,364.451 150.071 C 364.510 150.167,364.471 150.219,364.363 150.188 C 364.255 150.156,363.464 150.929,362.606 151.904 C 361.296 153.393,358.257 156.460,354.733 159.850 C 354.305 160.260,353.794 160.659,353.595 160.735 C 353.388 160.814,353.298 160.977,353.384 161.116 C 353.473 161.261,353.443 161.302,353.307 161.218 C 353.182 161.141,352.948 161.267,352.786 161.498 C 352.625 161.728,352.431 161.855,352.355 161.779 C 352.279 161.703,352.217 161.751,352.217 161.885 C 352.217 162.019,352.099 162.128,351.955 162.128 C 351.810 162.128,351.397 162.450,351.036 162.844 C 350.675 163.237,350.337 163.517,350.284 163.465 C 350.232 163.413,350.071 163.513,349.926 163.688 C 349.781 163.863,349.538 164.006,349.386 164.006 C 349.235 164.006,348.988 164.178,348.838 164.388 C 348.688 164.598,348.284 164.948,347.939 165.166 C 347.595 165.383,347.245 165.658,347.160 165.775 C 347.076 165.892,347.005 165.912,347.004 165.818 C 347.001 165.665,346.059 166.248,345.391 166.816 C 344.688 167.414,344.535 167.513,344.115 167.646 C 343.866 167.725,343.662 167.878,343.662 167.985 C 343.662 168.092,343.479 168.179,343.255 168.179 C 343.032 168.179,342.586 168.424,342.264 168.723 C 341.943 169.022,341.328 169.407,340.897 169.580 C 340.467 169.753,340.115 169.978,340.115 170.080 C 340.115 170.182,340.044 170.247,339.958 170.223 C 339.709 170.155,338.237 170.701,338.237 170.861 C 338.237 171.017,337.415 171.450,335.994 172.045 C 335.506 172.249,335.107 172.493,335.107 172.586 C 335.107 172.680,334.978 172.707,334.821 172.647 C 334.664 172.587,334.399 172.673,334.234 172.838 C 334.068 173.004,332.859 173.535,331.547 174.018 C 330.234 174.500,329.114 174.960,329.056 175.038 C 328.999 175.117,328.388 175.348,327.700 175.552 C 327.011 175.755,326.260 176.003,326.030 176.101 C 325.168 176.470,324.771 176.591,324.541 176.555 C 324.410 176.535,324.035 176.629,323.706 176.764 C 323.378 176.900,323.024 176.990,322.919 176.966 C 322.815 176.941,322.674 177.002,322.606 177.102 C 322.480 177.287,319.220 178.089,317.636 178.324 C 317.150 178.397,316.789 178.515,316.833 178.586 C 316.877 178.658,316.618 178.724,316.256 178.734 C 315.190 178.761,313.319 179.064,313.091 179.246 C 312.913 179.389,310.245 179.725,305.790 180.166 C 305.216 180.223,302.376 180.284,299.478 180.302 L 294.210 180.334 294.210 185.338 L 294.210 190.341 301.193 190.246 C 305.451 190.188,308.280 190.069,308.444 189.940 C 308.704 189.734,309.914 189.554,312.467 189.343 C 313.156 189.286,313.860 189.180,314.032 189.108 C 314.204 189.036,314.580 188.958,314.867 188.934 C 316.841 188.773,320.681 188.057,321.022 187.787 C 321.137 187.696,321.607 187.556,322.066 187.476 C 323.822 187.168,327.734 186.085,328.482 185.700 C 328.912 185.478,329.264 185.353,329.264 185.423 C 329.264 185.492,329.382 185.456,329.525 185.342 C 329.669 185.228,330.162 185.068,330.621 184.985 C 331.080 184.902,331.549 184.766,331.664 184.681 C 331.779 184.597,332.460 184.356,333.177 184.145 C 333.894 183.935,334.481 183.687,334.481 183.595 C 334.481 183.503,334.852 183.328,335.306 183.205 C 335.760 183.083,336.253 182.868,336.402 182.728 C 336.550 182.588,336.876 182.452,337.125 182.426 C 337.760 182.360,343.662 179.454,343.662 179.207 C 343.662 179.096,343.745 179.056,343.846 179.119 C 343.947 179.181,344.267 179.046,344.557 178.818 C 344.847 178.590,345.239 178.404,345.429 178.404 C 345.636 178.404,345.714 178.308,345.624 178.163 C 345.533 178.016,345.567 177.979,345.710 178.067 C 345.984 178.236,347.209 177.654,347.209 177.355 C 347.209 177.243,347.318 177.152,347.452 177.152 C 347.734 177.152,349.784 175.881,349.887 175.641 C 349.926 175.553,350.031 175.526,350.122 175.582 C 350.213 175.638,350.533 175.455,350.835 175.175 C 351.136 174.896,351.707 174.513,352.103 174.325 C 352.499 174.137,353.067 173.758,353.366 173.481 C 353.664 173.205,353.956 172.979,354.014 172.979 C 354.307 172.979,355.939 171.551,355.810 171.408 C 355.727 171.317,355.784 171.314,355.937 171.402 C 356.106 171.500,356.367 171.398,356.609 171.138 C 356.826 170.905,357.500 170.383,358.106 169.979 C 358.711 169.575,359.327 169.049,359.474 168.809 C 359.622 168.569,359.974 168.285,360.257 168.177 C 360.540 168.069,360.772 167.838,360.772 167.663 C 360.772 167.488,360.857 167.368,360.960 167.397 C 361.063 167.426,361.321 167.289,361.534 167.093 C 361.746 166.897,362.318 166.394,362.805 165.975 C 363.292 165.556,363.629 165.115,363.555 164.995 C 363.476 164.868,363.521 164.839,363.661 164.925 C 363.794 165.007,363.902 164.995,363.902 164.898 C 363.902 164.801,364.185 164.555,364.532 164.350 C 364.905 164.130,365.104 163.878,365.020 163.731 C 364.942 163.596,364.956 163.555,365.051 163.642 C 365.266 163.836,365.989 163.208,365.989 162.826 C 365.989 162.672,366.106 162.543,366.249 162.539 C 366.393 162.535,366.839 162.156,367.240 161.697 C 367.642 161.238,368.417 160.429,368.962 159.899 C 369.507 159.370,369.953 158.812,369.953 158.659 C 369.953 158.507,370.191 158.226,370.481 158.036 C 370.772 157.846,371.380 157.163,371.832 156.518 C 372.285 155.874,372.845 155.229,373.078 155.084 C 373.310 154.940,373.500 154.725,373.500 154.606 C 373.500 154.368,374.222 153.303,374.831 152.642 C 375.047 152.408,375.572 151.685,375.999 151.034 C 376.426 150.384,376.920 149.706,377.098 149.528 C 377.382 149.244,378.174 147.961,379.303 145.957 C 379.497 145.613,379.711 145.284,379.779 145.227 C 379.848 145.170,380.160 144.607,380.474 143.977 C 380.788 143.347,381.118 142.784,381.206 142.725 C 381.434 142.575,382.890 139.570,382.890 139.251 C 382.890 139.106,383.009 138.913,383.155 138.821 C 383.414 138.658,384.977 135.226,384.977 134.820 C 384.977 134.708,385.118 134.474,385.291 134.301 C 385.464 134.128,385.625 133.746,385.649 133.451 C 385.674 133.157,385.772 132.916,385.869 132.916 C 385.965 132.916,385.991 132.830,385.927 132.725 C 385.862 132.620,385.893 132.503,385.995 132.464 C 386.195 132.390,387.272 129.143,387.272 128.615 C 387.272 128.442,387.366 128.359,387.480 128.430 C 387.595 128.501,387.703 128.389,387.721 128.181 C 387.779 127.493,387.803 127.389,387.968 127.126 C 388.058 126.982,388.073 126.771,388.002 126.656 C 387.931 126.541,387.968 126.448,388.085 126.448 C 388.201 126.448,388.355 126.095,388.428 125.665 C 388.500 125.235,388.659 124.558,388.781 124.161 C 388.902 123.764,389.018 123.294,389.038 123.118 C 389.100 122.549,389.418 121.547,389.570 121.440 C 389.778 121.293,390.589 116.968,390.941 114.137 C 391.342 110.906,391.522 109.789,391.704 109.402 C 391.825 109.145,391.873 108.288,391.813 107.450 C 391.754 106.628,391.780 106.074,391.869 106.219 C 391.959 106.364,392.041 103.791,392.052 100.503 C 392.063 97.214,392.001 94.523,391.915 94.523 C 391.829 94.523,391.790 93.947,391.830 93.243 C 391.870 92.538,391.805 91.763,391.686 91.521 C 391.567 91.278,391.363 90.094,391.233 88.889 C 391.034 87.048,390.369 82.908,390.094 81.794 C 390.051 81.622,390.009 81.265,390.000 81.000 C 389.992 80.735,389.899 80.571,389.795 80.635 C 389.691 80.699,389.658 80.554,389.721 80.313 C 389.784 80.071,389.746 79.813,389.636 79.739 C 389.527 79.664,389.317 79.040,389.171 78.352 C 388.776 76.488,387.641 72.524,387.468 72.405 C 387.385 72.347,387.165 71.784,386.979 71.153 C 386.537 69.655,385.573 67.113,385.397 66.980 C 385.279 66.890,384.969 66.266,384.880 65.936 C 384.704 65.288,384.494 64.893,384.324 64.893 C 384.210 64.893,384.175 64.799,384.246 64.685 C 384.375 64.476,381.821 59.070,381.361 58.578 C 381.226 58.433,380.696 57.495,380.182 56.492 C 379.669 55.489,379.182 54.669,379.102 54.669 C 379.021 54.669,378.740 54.239,378.477 53.713 C 378.215 53.187,377.836 52.669,377.636 52.562 C 377.436 52.455,377.320 52.242,377.379 52.088 C 377.438 51.935,377.238 51.647,376.936 51.449 C 376.633 51.250,376.434 51.040,376.493 50.980 C 376.632 50.842,375.429 48.878,375.078 48.670 C 374.932 48.584,374.564 48.115,374.260 47.629 C 373.956 47.143,373.478 46.485,373.199 46.168 C 372.291 45.138,371.507 44.144,371.127 43.540 C 370.922 43.214,370.699 43.003,370.631 43.071 C 370.563 43.139,370.192 42.751,369.807 42.210 C 369.088 41.198,367.500 39.645,367.184 39.645 C 367.087 39.645,367.062 39.557,367.129 39.448 C 367.196 39.340,366.623 38.659,365.856 37.936 C 365.088 37.212,363.923 36.103,363.265 35.472 C 362.608 34.841,361.708 34.026,361.265 33.662 C 360.822 33.298,359.849 32.497,359.103 31.882 C 356.946 30.104,356.032 29.421,355.810 29.421 C 355.697 29.421,355.463 29.207,355.292 28.945 C 355.120 28.683,354.537 28.242,353.997 27.963 C 353.456 27.685,352.811 27.244,352.563 26.982 C 352.315 26.721,352.036 26.505,351.942 26.503 C 351.848 26.501,351.361 26.218,350.861 25.874 C 350.360 25.529,349.864 25.248,349.758 25.248 C 349.652 25.248,349.301 25.003,348.978 24.704 C 348.502 24.262,347.228 23.580,346.424 23.336 C 346.339 23.310,346.106 23.136,345.906 22.949 C 345.456 22.530,342.440 21.005,342.061 21.005 C 341.909 21.005,341.782 20.903,341.778 20.779 C 341.775 20.655,341.142 20.282,340.370 19.950 C 339.598 19.619,338.297 19.037,337.478 18.656 C 335.993 17.967,333.885 17.159,333.160 17.002 C 332.375 16.831,331.977 16.659,331.977 16.490 C 331.977 16.395,331.296 16.118,330.464 15.875 C 329.632 15.632,328.495 15.294,327.936 15.124 C 327.378 14.954,326.815 14.814,326.684 14.814 C 326.554 14.813,326.213 14.691,325.926 14.543 C 325.315 14.228,322.753 13.516,322.469 13.583 C 322.362 13.608,322.134 13.573,321.961 13.505 C 321.311 13.248,317.389 12.484,316.588 12.458 C 316.445 12.454,316.328 12.361,316.328 12.252 C 316.328 12.144,316.051 12.095,315.713 12.145 C 315.374 12.195,315.137 12.171,315.186 12.093 C 315.275 11.948,315.069 11.915,310.485 11.352 C 307.292 10.960,294.210 10.684,294.210 11.009 M261.641 25.239 C 260.156 25.688,257.101 28.737,255.857 31.010 C 255.707 31.284,255.496 31.508,255.388 31.508 C 255.279 31.508,255.214 31.625,255.243 31.768 C 255.271 31.912,255.177 32.006,255.034 31.977 C 254.890 31.948,254.773 32.014,254.773 32.124 C 254.773 32.233,254.354 32.777,253.842 33.333 C 253.330 33.889,252.612 34.762,252.245 35.273 C 251.878 35.784,251.358 36.426,251.089 36.700 C 250.820 36.974,250.600 37.283,250.600 37.387 C 250.600 37.490,250.221 37.958,249.757 38.426 C 249.293 38.895,248.894 39.367,248.870 39.476 C 248.846 39.585,248.498 40.025,248.096 40.454 C 247.028 41.595,245.984 42.914,245.458 43.785 C 245.204 44.205,244.945 44.502,244.881 44.444 C 244.741 44.318,244.010 45.319,244.081 45.540 C 244.109 45.626,243.744 46.062,243.270 46.508 C 242.797 46.954,242.473 47.423,242.551 47.549 C 242.634 47.683,242.580 47.735,242.421 47.675 C 242.262 47.614,241.904 47.961,241.556 48.512 C 241.230 49.029,240.896 49.452,240.814 49.452 C 240.688 49.452,239.789 50.582,239.019 51.707 C 238.905 51.875,238.623 52.222,238.393 52.479 C 237.505 53.473,237.090 54.026,237.172 54.108 C 237.219 54.155,236.924 54.447,236.517 54.758 C 236.110 55.068,235.825 55.400,235.884 55.495 C 235.943 55.590,235.851 55.722,235.680 55.788 C 235.508 55.854,235.368 56.008,235.368 56.132 C 235.368 56.380,235.109 56.731,234.316 57.558 C 233.505 58.405,233.105 58.965,233.470 58.745 C 233.669 58.626,233.715 58.646,233.614 58.810 C 233.532 58.942,233.375 59.051,233.266 59.051 C 232.970 59.051,231.718 60.520,230.464 62.337 C 230.350 62.503,229.974 62.947,229.630 63.323 C 228.056 65.043,226.906 66.429,226.781 66.758 C 226.705 66.955,226.306 67.435,225.894 67.824 C 225.481 68.214,225.143 68.606,225.143 68.697 C 225.143 69.000,223.949 70.515,223.815 70.381 C 223.742 70.308,223.683 70.391,223.683 70.564 C 223.683 70.738,223.494 71.050,223.264 71.258 C 223.034 71.467,222.883 71.675,222.929 71.721 C 222.975 71.767,222.811 72.024,222.565 72.293 C 221.810 73.119,221.618 73.398,221.713 73.530 C 221.764 73.600,221.741 73.608,221.663 73.550 C 221.472 73.405,220.344 74.501,220.344 74.832 C 220.344 74.976,220.172 75.216,219.962 75.366 C 219.751 75.516,219.223 76.155,218.787 76.787 C 218.352 77.418,217.726 78.152,217.396 78.419 C 217.067 78.685,216.797 79.004,216.797 79.128 C 216.797 79.251,216.466 79.690,216.062 80.104 C 215.658 80.517,215.071 81.201,214.758 81.623 C 214.181 82.400,212.671 84.239,211.172 85.989 C 210.719 86.518,210.321 87.081,210.287 87.241 C 210.252 87.401,210.058 87.656,209.856 87.808 C 209.653 87.959,209.541 88.170,209.607 88.277 C 209.673 88.384,209.597 88.472,209.438 88.472 C 209.055 88.472,208.371 89.247,208.011 90.091 C 207.851 90.465,207.549 90.826,207.340 90.893 C 207.130 90.959,207.005 91.060,207.062 91.117 C 207.155 91.210,206.691 91.837,205.988 92.564 C 205.839 92.719,205.205 93.481,204.580 94.258 C 203.955 95.035,203.067 96.093,202.606 96.609 C 202.145 97.126,201.769 97.619,201.772 97.706 C 201.775 97.793,201.354 98.300,200.836 98.832 C 200.319 99.364,199.896 99.913,199.896 100.050 C 199.896 100.188,199.590 100.621,199.216 101.011 C 198.608 101.647,198.132 102.266,197.496 103.250 C 197.381 103.428,197.029 103.799,196.714 104.074 C 196.398 104.350,196.140 104.685,196.140 104.820 C 196.140 104.954,195.948 105.183,195.714 105.330 C 195.480 105.476,195.345 105.686,195.414 105.797 C 195.482 105.908,195.439 105.999,195.317 105.999 C 195.196 105.999,195.097 106.140,195.097 106.312 C 195.097 106.484,194.953 106.625,194.777 106.625 C 194.601 106.625,194.396 106.789,194.321 106.990 C 194.246 107.191,194.017 107.476,193.812 107.624 C 193.607 107.771,193.286 108.216,193.098 108.613 C 192.909 109.009,192.679 109.286,192.585 109.228 C 192.491 109.170,192.055 109.686,191.616 110.373 C 191.178 111.061,190.708 111.626,190.572 111.628 C 190.435 111.631,190.113 112.008,189.855 112.467 C 189.597 112.926,189.304 113.302,189.203 113.302 C 189.103 113.302,189.070 113.382,189.130 113.479 C 189.191 113.577,189.011 113.779,188.732 113.928 C 188.453 114.077,188.274 114.279,188.335 114.377 C 188.395 114.474,188.329 114.554,188.188 114.554 C 188.048 114.554,187.989 114.611,188.058 114.680 C 188.128 114.749,187.932 115.038,187.624 115.323 C 187.315 115.607,187.204 115.765,187.376 115.675 C 187.548 115.584,187.267 115.936,186.750 116.458 C 186.234 116.979,185.623 117.663,185.394 117.977 C 185.164 118.291,184.531 119.035,183.988 119.629 C 183.444 120.223,182.998 120.812,182.996 120.938 C 182.995 121.064,182.806 121.336,182.577 121.544 C 182.347 121.752,182.160 122.054,182.160 122.215 C 182.160 122.376,182.069 122.452,181.958 122.383 C 181.848 122.315,181.532 122.615,181.256 123.049 C 180.980 123.484,180.494 124.098,180.177 124.413 C 179.859 124.729,179.646 124.987,179.704 124.987 C 179.762 124.987,179.496 125.320,179.112 125.726 C 178.729 126.133,178.261 126.789,178.073 127.185 C 177.886 127.581,177.655 127.857,177.562 127.799 C 177.468 127.741,177.126 128.084,176.802 128.560 C 176.478 129.037,175.988 129.648,175.713 129.919 C 175.438 130.190,175.263 130.412,175.324 130.412 C 175.433 130.412,174.782 131.217,173.865 132.215 C 173.345 132.782,173.259 133.020,173.657 132.791 C 173.808 132.703,173.845 132.720,173.744 132.830 C 173.648 132.935,173.500 133.020,173.414 133.020 C 173.329 133.020,172.819 133.560,172.282 134.220 C 171.744 134.880,171.338 135.420,171.378 135.420 C 171.419 135.420,171.044 135.864,170.546 136.407 C 170.048 136.949,169.640 137.450,169.640 137.520 C 169.640 137.590,169.276 138.030,168.831 138.498 C 168.386 138.966,167.893 139.638,167.737 139.992 C 167.580 140.347,167.333 140.636,167.188 140.636 C 167.042 140.636,166.648 141.084,166.311 141.632 C 165.974 142.180,165.412 142.840,165.061 143.099 C 164.710 143.358,164.424 143.700,164.424 143.858 C 164.424 144.016,164.025 144.568,163.537 145.085 C 162.280 146.416,161.294 147.665,161.294 147.925 C 161.294 148.048,161.208 148.148,161.103 148.148 C 160.998 148.148,160.530 148.641,160.063 149.244 C 159.596 149.846,158.988 150.574,158.711 150.861 C 158.435 151.148,157.963 151.781,157.662 152.269 C 157.361 152.757,157.025 153.156,156.916 153.156 C 156.806 153.156,156.384 153.676,155.977 154.311 C 155.571 154.946,155.102 155.518,154.935 155.582 C 154.769 155.646,154.574 155.882,154.503 156.106 C 154.432 156.330,154.007 156.908,153.559 157.391 C 153.111 157.873,152.743 158.335,152.741 158.416 C 152.740 158.498,152.371 158.904,151.923 159.319 C 151.474 159.735,151.049 160.301,150.980 160.579 C 150.910 160.856,150.785 161.060,150.701 161.032 C 150.617 161.004,150.512 161.075,150.468 161.189 C 150.423 161.304,150.211 161.522,149.995 161.673 C 149.779 161.824,149.657 162.038,149.725 162.148 C 149.793 162.258,149.728 162.322,149.582 162.290 C 149.435 162.258,149.310 162.338,149.305 162.467 C 149.300 162.596,148.897 163.089,148.409 163.563 C 147.921 164.036,147.522 164.611,147.522 164.841 C 147.522 165.070,147.436 165.258,147.330 165.258 C 146.987 165.258,146.627 166.769,146.650 168.109 C 146.680 169.916,147.877 172.256,148.556 171.837 C 148.676 171.763,148.774 171.806,148.774 171.934 C 148.774 172.617,152.718 173.125,153.323 172.520 C 153.461 172.382,153.573 172.335,153.573 172.417 C 153.573 172.777,155.315 171.253,156.063 170.239 C 156.517 169.623,157.152 168.860,157.474 168.545 C 157.796 168.229,157.979 167.971,157.880 167.971 C 157.781 167.971,157.922 167.786,158.193 167.560 C 158.464 167.335,158.610 167.147,158.517 167.143 C 158.424 167.139,158.799 166.676,159.351 166.115 C 160.619 164.824,161.622 163.561,161.555 163.341 C 161.526 163.248,161.620 163.195,161.763 163.224 C 161.907 163.252,162.024 163.135,162.024 162.963 C 162.024 162.791,162.188 162.527,162.389 162.377 C 162.590 162.227,162.754 161.953,162.754 161.769 C 162.754 161.584,162.811 161.490,162.881 161.559 C 163.032 161.711,163.759 161.064,164.086 160.486 C 164.335 160.045,166.417 157.420,167.747 155.869 C 168.190 155.352,168.559 154.855,168.566 154.765 C 168.574 154.674,169.002 154.178,169.518 153.662 C 170.034 153.146,170.665 152.353,170.920 151.899 C 171.175 151.445,171.540 151.024,171.732 150.963 C 171.924 150.902,172.182 150.643,172.305 150.387 C 172.428 150.131,173.234 149.081,174.096 148.053 C 174.958 147.025,175.617 146.110,175.560 146.019 C 175.504 145.927,175.607 145.853,175.790 145.853 C 175.972 145.853,176.185 145.689,176.261 145.488 C 176.338 145.287,176.594 144.961,176.829 144.764 C 177.064 144.567,177.172 144.403,177.069 144.399 C 176.966 144.395,177.177 144.110,177.538 143.765 C 177.899 143.420,178.171 143.025,178.142 142.888 C 178.114 142.750,178.229 142.633,178.398 142.628 C 178.566 142.623,178.816 142.394,178.953 142.120 C 179.090 141.846,179.492 141.314,179.846 140.938 C 180.200 140.562,180.490 140.148,180.490 140.016 C 180.490 139.885,180.584 139.835,180.699 139.906 C 180.814 139.977,180.908 139.943,180.908 139.830 C 180.908 139.717,181.140 139.349,181.423 139.012 C 181.707 138.675,181.879 138.339,181.806 138.266 C 181.733 138.192,181.806 138.129,181.968 138.124 C 182.131 138.119,182.640 137.600,183.099 136.971 C 183.558 136.342,184.330 135.383,184.815 134.841 C 185.301 134.299,185.700 133.743,185.702 133.606 C 185.705 133.469,185.916 133.211,186.171 133.032 C 186.426 132.854,186.559 132.707,186.468 132.707 C 186.376 132.707,186.590 132.464,186.943 132.167 C 187.296 131.870,187.585 131.501,187.585 131.348 C 187.585 131.194,187.800 130.897,188.064 130.688 C 188.671 130.206,190.306 127.998,190.182 127.828 C 190.131 127.757,190.150 127.746,190.226 127.802 C 190.429 127.953,190.938 127.475,190.804 127.259 C 190.741 127.157,190.778 127.074,190.885 127.074 C 191.066 127.074,191.994 126.007,193.532 124.032 C 193.876 123.590,194.557 122.776,195.044 122.223 C 195.532 121.670,195.931 121.141,195.931 121.048 C 195.931 120.955,196.300 120.512,196.750 120.064 C 197.201 119.616,197.600 119.127,197.637 118.979 C 197.674 118.831,198.200 118.192,198.806 117.560 C 199.412 116.928,199.858 116.331,199.798 116.234 C 199.738 116.138,199.830 116.004,200.001 115.939 C 200.173 115.873,200.313 115.670,200.313 115.487 C 200.313 115.305,200.408 115.214,200.523 115.285 C 200.639 115.357,200.786 115.276,200.852 115.107 C 200.917 114.937,201.338 114.399,201.789 113.911 C 202.240 113.423,202.608 112.905,202.608 112.760 C 202.608 112.615,202.879 112.303,203.211 112.067 C 203.542 111.831,204.110 111.175,204.473 110.610 C 204.835 110.045,205.263 109.533,205.424 109.471 C 205.585 109.409,205.875 109.049,206.068 108.670 C 206.262 108.291,206.549 107.906,206.705 107.814 C 206.862 107.723,206.990 107.511,206.990 107.345 C 206.990 107.178,207.131 107.042,207.303 107.042 C 207.588 107.042,207.699 106.814,207.564 106.506 C 207.535 106.440,207.660 106.304,207.842 106.202 C 208.024 106.100,208.444 105.626,208.775 105.148 C 209.106 104.670,209.778 103.844,210.268 103.313 C 210.758 102.782,211.160 102.233,211.161 102.094 C 211.162 101.955,211.354 101.739,211.586 101.614 C 211.819 101.489,211.946 101.284,211.867 101.157 C 211.784 101.022,211.820 100.985,211.955 101.069 C 212.178 101.207,212.758 100.422,212.668 100.104 C 212.644 100.018,212.711 99.948,212.818 99.948 C 212.926 99.948,213.069 99.770,213.138 99.553 C 213.207 99.336,213.440 99.112,213.656 99.056 C 213.872 98.999,214.305 98.547,214.619 98.050 C 214.932 97.553,215.783 96.429,216.509 95.551 C 217.235 94.673,217.761 93.880,217.678 93.788 C 217.595 93.696,217.633 93.681,217.761 93.755 C 217.896 93.831,218.383 93.356,218.904 92.640 C 219.404 91.954,219.901 91.393,220.009 91.393 C 220.117 91.393,220.153 91.340,220.088 91.276 C 220.024 91.211,220.201 90.929,220.482 90.648 C 220.777 90.353,220.930 90.028,220.844 89.878 C 220.762 89.736,220.767 89.684,220.856 89.764 C 221.040 89.930,222.147 88.689,222.061 88.414 C 222.029 88.314,222.093 88.288,222.203 88.356 C 222.313 88.424,222.747 87.961,223.168 87.328 C 223.588 86.694,223.996 86.176,224.075 86.176 C 224.287 86.176,227.342 82.392,227.287 82.197 C 227.260 82.105,227.774 81.508,228.428 80.869 C 229.082 80.230,229.538 79.708,229.442 79.708 C 229.345 79.708,229.630 79.339,230.074 78.888 C 231.125 77.821,231.403 77.474,231.403 77.230 C 231.403 77.120,231.779 76.638,232.238 76.161 C 233.004 75.363,233.165 75.079,233.097 74.648 C 233.084 74.562,233.175 74.491,233.300 74.491 C 233.576 74.491,234.308 73.645,234.318 73.314 C 234.321 73.183,234.471 73.019,234.651 72.950 C 234.833 72.880,234.911 72.718,234.827 72.583 C 234.742 72.444,234.768 72.396,234.888 72.471 C 235.112 72.609,236.411 71.130,236.411 70.735 C 236.411 70.607,236.481 70.544,236.568 70.594 C 236.654 70.644,237.006 70.315,237.350 69.862 C 237.694 69.409,238.335 68.650,238.775 68.176 C 239.214 67.701,239.705 67.058,239.866 66.747 C 240.027 66.436,240.373 66.009,240.635 65.798 C 240.897 65.587,241.485 64.898,241.943 64.267 C 242.968 62.851,243.224 62.527,244.079 61.549 C 244.452 61.122,244.757 60.730,244.757 60.676 C 244.757 60.623,245.139 60.178,245.605 59.688 C 246.071 59.199,246.403 58.748,246.343 58.688 C 246.282 58.628,246.547 58.286,246.930 57.928 C 247.806 57.109,248.758 55.818,248.601 55.661 C 248.535 55.595,248.653 55.485,248.863 55.415 C 249.072 55.346,249.524 54.893,249.866 54.409 C 250.208 53.925,250.696 53.292,250.950 53.003 C 252.148 51.643,253.564 49.818,253.297 49.979 C 253.043 50.132,253.041 50.107,253.286 49.805 C 253.443 49.611,253.678 49.452,253.808 49.451 C 254.050 49.449,254.852 48.379,255.097 47.731 C 255.173 47.530,255.358 47.366,255.508 47.366 C 255.814 47.366,257.186 45.290,257.093 44.966 C 257.060 44.851,257.103 44.827,257.187 44.911 C 257.374 45.098,258.299 44.157,259.065 43.000 C 259.374 42.532,259.706 42.149,259.802 42.149 C 259.898 42.149,259.922 42.008,259.856 41.836 C 259.786 41.653,259.854 41.522,260.019 41.519 C 260.295 41.516,261.659 40.030,261.659 39.734 C 261.659 39.653,261.823 39.452,262.024 39.288 C 262.235 39.115,262.257 39.056,262.076 39.148 C 261.807 39.285,261.803 39.259,262.048 38.957 C 262.204 38.764,262.410 38.655,262.505 38.714 C 262.601 38.773,262.928 38.396,263.232 37.877 C 263.536 37.358,263.867 36.933,263.967 36.933 C 264.068 36.933,264.548 36.393,265.035 35.734 C 265.522 35.075,266.120 34.347,266.364 34.117 C 266.994 33.522,267.919 31.866,267.919 31.333 C 267.919 31.085,268.013 30.882,268.127 30.882 C 268.383 30.882,268.404 29.551,268.155 29.053 C 268.056 28.854,267.725 28.144,267.420 27.475 C 266.564 25.602,263.876 24.561,261.641 25.239 " stroke="none" fill="#04447c" fill-rule="evenodd"></path><path id="path1" d="" stroke="none" fill="#044484" fill-rule="evenodd"></path></g></svg>